<svg xmlns="http://www.w3.org/2000/svg" xmlns:xlink="http://www.w3.org/1999/xlink" width="500" zoomAndPan="magnify" viewBox="0 0 375 374.999991" height="500" preserveAspectRatio="xMidYMid meet" version="1.0"><path stroke-linecap="round" transform="matrix(1.320422, 0, 0, 1.320422, 0.0000045, 0)" fill="none" stroke-linejoin="round" d="M 270.527767 270.527771 C 297.45452 243.601019 261.741517 164.225971 190.759261 93.243716 C 119.774048 22.258502 40.401958 -13.454501 13.472248 13.472251 C -13.454504 40.399003 22.258498 119.774051 93.243712 190.756306 C 164.228926 261.74152 243.601015 297.454523 270.527767 270.527771 Z M 270.527767 270.527771 " stroke="#8946ff" stroke-width="8" stroke-opacity="1" stroke-miterlimit="4"/><path stroke-linecap="round" transform="matrix(0, 1.320422, -1.320422, 0, 374.99998, 0)" fill="none" stroke-linejoin="round" d="M 270.527771 270.527756 C 297.454523 243.601004 261.74152 164.225956 190.759265 93.2437 C 119.774051 22.258486 40.401961 -13.454516 13.472251 13.472236 C -13.454501 40.398988 22.258502 119.774036 93.243716 190.756291 C 164.228929 261.741505 243.601019 297.457466 270.527771 270.527756 Z M 270.527771 270.527756 " stroke="#8946ff" stroke-width="8" stroke-opacity="1" stroke-miterlimit="4"/></svg>